<?xml version="1.0" encoding="UTF-8" standalone="no"?>
<svg
   width="400"
   height="400"
   viewBox="0 0 400 400"
   version="1.1"
   id="svg136"
   sodipodi:docname="placeholder-1x1.svg"
   inkscape:version="1.2.1 (9c6d41e, 2022-07-14)"
   xmlns:inkscape="http://www.inkscape.org/namespaces/inkscape"
   xmlns:sodipodi="http://sodipodi.sourceforge.net/DTD/sodipodi-0.dtd"
   xmlns="http://www.w3.org/2000/svg"
   xmlns:svg="http://www.w3.org/2000/svg">
  <defs
     id="defs140" />
  <sodipodi:namedview
     id="namedview138"
     pagecolor="#ffffff"
     bordercolor="#666666"
     borderopacity="1.0"
     inkscape:showpageshadow="2"
     inkscape:pageopacity="0.0"
     inkscape:pagecheckerboard="0"
     inkscape:deskcolor="#d1d1d1"
     showgrid="false"
     inkscape:zoom="0.59"
     inkscape:cx="202.54237"
     inkscape:cy="200.84746"
     inkscape:window-width="1512"
     inkscape:window-height="843"
     inkscape:window-x="0"
     inkscape:window-y="603"
     inkscape:window-maximized="0"
     inkscape:current-layer="svg136" />
  <rect
     width="100%"
     height="100%"
     fill="#dddddd"
     id="rect132"
     x="0"
     y="0" />
  <path
     fill="#999999"
     d="m 44.46,139.465 v 96.88 H 26.37 v -96.88 z m 35.58,96.88 H 63.49 v -68.74 h 10.12 q 3.21,0 4.22,3.01 l 1.07,5.09 q 1.81,-2.01 3.79,-3.68 1.97,-1.68 4.22,-2.88 2.24,-1.21 4.82,-1.91 2.58,-0.7 5.66,-0.7 6.5,0 10.69,3.51 4.19,3.52 6.26,9.35 1.61,-3.42 4.02,-5.86 2.42,-2.45 5.3,-3.99 2.88,-1.54 6.13,-2.28 3.25,-0.73 6.53,-0.73 5.69,0 10.12,1.74 4.42,1.74 7.43,5.09 3.02,3.35 4.59,8.17 1.58,4.83 1.58,11.06 v 43.75 h -16.55 v -43.75 q 0,-6.57 -2.88,-9.88 -2.88,-3.32 -8.44,-3.32 -2.55,0 -4.73,0.87 -2.18,0.87 -3.82,2.51 -1.64,1.64 -2.58,4.12 -0.93,2.48 -0.93,5.7 v 43.75 h -16.62 v -43.75 q 0,-6.9 -2.78,-10.05 -2.78,-3.15 -8.14,-3.15 -3.62,0 -6.74,1.78 -3.11,1.77 -5.79,4.85 z m 131.99,-17.76 v -11.59 q -7.17,0.34 -12.06,1.24 -4.89,0.91 -7.84,2.31 -2.95,1.41 -4.22,3.29 -1.27,1.87 -1.27,4.08 0,4.36 2.58,6.24 2.58,1.87 6.73,1.87 5.09,0 8.81,-1.84 3.72,-1.84 7.27,-5.6 z m -34.97,-36.11 -2.95,-5.29 q 11.86,-10.86 28.54,-10.86 6.03,0 10.79,1.98 4.75,1.98 8.04,5.5 3.28,3.51 4.99,8.4 1.71,4.89 1.71,10.72 v 43.42 h -7.51 q -2.34,0 -3.62,-0.7 -1.27,-0.71 -2.01,-2.85 l -1.47,-4.96 q -2.61,2.35 -5.09,4.12 -2.48,1.78 -5.16,2.98 -2.68,1.21 -5.73,1.85 -3.05,0.63 -6.73,0.63 -4.36,0 -8.04,-1.17 -3.69,-1.17 -6.37,-3.52 -2.68,-2.34 -4.15,-5.83 -1.48,-3.48 -1.48,-8.1 0,-2.62 0.88,-5.2 0.87,-2.58 2.84,-4.92 1.98,-2.35 5.13,-4.42 3.15,-2.08 7.74,-3.62 4.59,-1.54 10.68,-2.51 6.1,-0.98 13.94,-1.18 v -4.02 q 0,-6.9 -2.95,-10.21 -2.95,-3.32 -8.51,-3.32 -4.02,0 -6.66,0.94 -2.65,0.94 -4.66,2.11 -2.01,1.17 -3.65,2.11 -1.64,0.94 -3.65,0.94 -1.75,0 -2.95,-0.91 -1.21,-0.9 -1.94,-2.11 z m 91.79,17.82 q 3.08,0 5.36,-0.83 2.27,-0.84 3.78,-2.32 1.51,-1.47 2.28,-3.55 0.77,-2.07 0.77,-4.55 0,-5.09 -3.05,-8.08 -3.05,-2.98 -9.14,-2.98 -6.1,0 -9.15,2.98 -3.05,2.99 -3.05,8.08 0,2.41 0.77,4.49 0.77,2.07 2.28,3.58 1.51,1.51 3.82,2.35 2.31,0.83 5.33,0.83 z m 18.69,39.13 q 0,-2.01 -1.21,-3.28 -1.2,-1.27 -3.28,-1.98 -2.08,-0.7 -4.86,-1.04 -2.78,-0.33 -5.89,-0.5 -3.12,-0.17 -6.44,-0.3 -3.31,-0.13 -6.46,-0.54 -2.75,1.54 -4.46,3.62 -1.71,2.08 -1.71,4.83 0,1.81 0.91,3.38 0.9,1.57 2.88,2.71 1.98,1.14 5.13,1.78 3.14,0.64 7.7,0.64 4.62,0 7.97,-0.71 3.35,-0.7 5.53,-1.94 2.18,-1.24 3.18,-2.95 1.01,-1.71 1.01,-3.72 z m -3.28,-69.48 h 19.76 v 6.17 q 0,2.94 -3.55,3.61 l -6.16,1.14 q 1.4,3.55 1.4,7.78 0,5.09 -2.04,9.21 -2.04,4.12 -5.66,7 -3.62,2.88 -8.54,4.46 -4.93,1.57 -10.62,1.57 -2.01,0 -3.89,-0.2 -1.88,-0.2 -3.69,-0.54 -3.21,1.95 -3.21,4.36 0,2.07 1.91,3.05 1.91,0.97 5.06,1.37 3.15,0.4 7.17,0.5 4.02,0.1 8.24,0.44 4.22,0.33 8.24,1.17 4.02,0.84 7.17,2.65 3.15,1.81 5.06,4.92 1.9,3.12 1.9,8.01 0,4.55 -2.24,8.84 -2.24,4.29 -6.5,7.64 -4.25,3.35 -10.45,5.39 -6.2,2.05 -14.1,2.05 -7.78,0 -13.54,-1.51 -5.76,-1.51 -9.58,-4.02 -3.82,-2.51 -5.69,-5.8 -1.88,-3.28 -1.88,-6.83 0,-4.82 2.91,-8.07 2.92,-3.25 8.01,-5.2 -2.75,-1.4 -4.35,-3.75 -1.61,-2.34 -1.61,-6.16 0,-1.54 0.57,-3.18 0.57,-1.65 1.67,-3.25 1.11,-1.61 2.78,-3.05 1.68,-1.44 3.96,-2.58 -5.23,-2.82 -8.21,-7.51 -2.98,-4.69 -2.98,-10.98 0,-5.1 2.04,-9.22 2.04,-4.12 5.7,-7.03 3.65,-2.92 8.64,-4.46 4.99,-1.54 10.89,-1.54 4.42,0 8.3,0.91 3.89,0.9 7.11,2.64 z m 43.28,24.12 h 31.22 q 0,-3.21 -0.9,-6.06 -0.91,-2.85 -2.72,-4.99 -1.81,-2.15 -4.59,-3.39 -2.78,-1.24 -6.46,-1.24 -7.17,0 -11.29,4.09 -4.12,4.09 -5.26,11.59 z m 42.21,9.99 H 327.2 q 0.4,5.29 1.88,9.14 1.47,3.85 3.88,6.37 2.42,2.51 5.73,3.75 3.32,1.24 7.34,1.24 4.02,0 6.93,-0.94 2.92,-0.94 5.1,-2.08 2.17,-1.14 3.82,-2.07 1.64,-0.94 3.18,-0.94 2.07,0 3.08,1.54 l 4.76,6.03 q -2.75,3.21 -6.17,5.39 -3.41,2.18 -7.13,3.49 -3.72,1.3 -7.57,1.84 -3.86,0.54 -7.47,0.54 -7.17,0 -13.34,-2.38 -6.16,-2.38 -10.72,-7.04 -4.55,-4.66 -7.17,-11.52 -2.61,-6.87 -2.61,-15.91 0,-7.04 2.28,-13.24 2.28,-6.2 6.53,-10.78 4.26,-4.59 10.39,-7.27 6.13,-2.68 13.83,-2.68 6.5,0 11.99,2.07 5.5,2.08 9.45,6.07 3.95,3.98 6.2,9.78 2.24,5.79 2.24,13.23 0,3.75 -0.8,5.06 -0.8,1.31 -3.08,1.31 z"
     id="path134" />
</svg>
